HIERARCHY
ROOT Model
{
	OFFSET 0 0 0
	CHANNELS 6 Xposition Yposition Zposition Zrotation Xrotation Yrotation
	JOINT Model1
	{
		OFFSET 0 -2.25479 2.99384
		CHANNELS 3 Zrotation Xrotation Yrotation
		JOINT Model2
		{
			OFFSET 12.111 0 0
			CHANNELS 3 Zrotation Xrotation Yrotation
			JOINT Model3
			{
				OFFSET 11.5502 0 0
				CHANNELS 3 Zrotation Xrotation Yrotation
				JOINT Model4
				{
					OFFSET 11.781 0 0
					CHANNELS 3 Zrotation Xrotation Yrotation
					JOINT Model5
					{
						OFFSET 20.0601 0 0
						CHANNELS 3 Zrotation Xrotation Yrotation
						JOINT Model6
						{
							OFFSET 11.1962 0 0
							CHANNELS 3 Zrotation Xrotation Yrotation
							End Site
							{
								OFFSET 0 0 0
							}
						}
					}
					JOINT Model7
					{
						OFFSET 10.8223 0.417534 3.51114
						CHANNELS 3 Zrotation Xrotation Yrotation
						JOINT Model8
						{
							OFFSET -6.07943 0 0
							CHANNELS 3 Zrotation Xrotation Yrotation
							JOINT Model9
							{
								OFFSET -0.277412 10.39 -0.051239
								CHANNELS 3 Zrotation Xrotation Yrotation
								JOINT Model10
								{
									OFFSET -3.4391 -0.282043 1.86679
									CHANNELS 3 Zrotation Xrotation Yrotation
									JOINT Model11
									{
										OFFSET 13.0269 0 0
										CHANNELS 3 Zrotation Xrotation Yrotation
										JOINT Model12
										{
											OFFSET 10.8866 0 0
											CHANNELS 3 Zrotation Xrotation Yrotation
											JOINT Model13
											{
												OFFSET 16.7317 0 0
												CHANNELS 3 Zrotation Xrotation Yrotation
												JOINT Model14
												{
													OFFSET 11.8292 0 0
													CHANNELS 3 Zrotation Xrotation Yrotation
													JOINT Model15
													{
														OFFSET 4.82751 -3.73566 -0.836517
														CHANNELS 3 Zrotation Xrotation Yrotation
														JOINT Model16
														{
															OFFSET 3.75311 -0.0582886 -0.0186462
															CHANNELS 3 Zrotation Xrotation Yrotation
															JOINT Model17
															{
																OFFSET 2.88689 0.0192337 0.014801
																CHANNELS 3 Zrotation Xrotation Yrotation
																End Site
																{
																	OFFSET 0 0 0
																}
															}
														}
													}
													JOINT Model18
													{
														OFFSET 9.72197 -3.06458 0.23877
														CHANNELS 3 Zrotation Xrotation Yrotation
														JOINT Model19
														{
															OFFSET 4.61131 0 0
															CHANNELS 3 Zrotation Xrotation Yrotation
															JOINT Model20
															{
																OFFSET 2.8969 -7.62939e-006 0
																CHANNELS 3 Zrotation Xrotation Yrotation
																End Site
																{
																	OFFSET 0 0 0
																}
															}
														}
													}
													JOINT Model21
													{
														OFFSET 9.54431 -0.745064 0.588928
														CHANNELS 3 Zrotation Xrotation Yrotation
														JOINT Model22
														{
															OFFSET 5.33978 0 0
															CHANNELS 3 Zrotation Xrotation Yrotation
															JOINT Model23
															{
																OFFSET 3.03619 7.62939e-006 0
																CHANNELS 3 Zrotation Xrotation Yrotation
																End Site
																{
																	OFFSET 0 0 0
																}
															}
														}
													}
													JOINT Model24
													{
														OFFSET 9.47758 1.51286 0.485107
														CHANNELS 3 Zrotation Xrotation Yrotation
														JOINT Model25
														{
															OFFSET 4.96136 7.62939e-006 0
															CHANNELS 3 Zrotation Xrotation Yrotation
															JOINT Model26
															{
																OFFSET 2.51965 0 0
																CHANNELS 3 Zrotation Xrotation Yrotation
																End Site
																{
																	OFFSET 0 0 0
																}
															}
														}
													}
													JOINT Model27
													{
														OFFSET 9.34247 3.34117 -0.239288
														CHANNELS 3 Zrotation Xrotation Yrotation
														JOINT Model28
														{
															OFFSET 3.28259 2.28882e-005 0
															CHANNELS 3 Zrotation Xrotation Yrotation
															JOINT Model29
															{
																OFFSET 2.1292 0 0
																CHANNELS 3 Zrotation Xrotation Yrotation
																End Site
																{
																	OFFSET 0 0 0
																}
															}
														}
													}
												}
											}
										}
									}
								}
							}
						}
					}
					JOINT Model30
					{
						OFFSET 10.8223 0.4179 -3.51108
						CHANNELS 3 Zrotation Xrotation Yrotation
						JOINT Model31
						{
							OFFSET 6.07943 0 0
							CHANNELS 3 Zrotation Xrotation Yrotation
							JOINT Model32
							{
								OFFSET 0.277412 -10.39 0.051239
								CHANNELS 3 Zrotation Xrotation Yrotation
								JOINT Model33
								{
									OFFSET 3.4391 0.282043 -1.86679
									CHANNELS 3 Zrotation Xrotation Yrotation
									JOINT Model34
									{
										OFFSET -13.0269 0 0
										CHANNELS 3 Zrotation Xrotation Yrotation
										JOINT Model35
										{
											OFFSET -10.8866 0 0
											CHANNELS 3 Zrotation Xrotation Yrotation
											JOINT Model36
											{
												OFFSET -16.7317 0 0
												CHANNELS 3 Zrotation Xrotation Yrotation
												JOINT Model37
												{
													OFFSET -11.8292 0 0
													CHANNELS 3 Zrotation Xrotation Yrotation
													JOINT Model38
													{
														OFFSET -4.82751 3.73566 0.836517
														CHANNELS 3 Zrotation Xrotation Yrotation
														JOINT Model39
														{
															OFFSET -3.75311 0.0582886 0.0186462
															CHANNELS 3 Zrotation Xrotation Yrotation
															JOINT Model40
															{
																OFFSET -2.88688 -0.0192337 -0.014801
																CHANNELS 3 Zrotation Xrotation Yrotation
																End Site
																{
																	OFFSET 0 0 0
																}
															}
														}
													}
													JOINT Model41
													{
														OFFSET -9.72197 3.06459 -0.23877
														CHANNELS 3 Zrotation Xrotation Yrotation
														JOINT Model42
														{
															OFFSET -4.6113 0 0
															CHANNELS 3 Zrotation Xrotation Yrotation
															JOINT Model43
															{
																OFFSET -2.8969 0 0
																CHANNELS 3 Zrotation Xrotation Yrotation
																End Site
																{
																	OFFSET 0 0 0
																}
															}
														}
													}
													JOINT Model44
													{
														OFFSET -9.5443 0.745064 -0.588928
														CHANNELS 3 Zrotation Xrotation Yrotation
														JOINT Model45
														{
															OFFSET -5.33978 0 0
															CHANNELS 3 Zrotation Xrotation Yrotation
															JOINT Model46
															{
																OFFSET -3.03619 -1.52588e-005 0
																CHANNELS 3 Zrotation Xrotation Yrotation
																End Site
																{
																	OFFSET 0 0 0
																}
															}
														}
													}
													JOINT Model47
													{
														OFFSET -9.47759 -1.51286 -0.485107
														CHANNELS 3 Zrotation Xrotation Yrotation
														JOINT Model48
														{
															OFFSET -4.96136 -1.52588e-005 0
															CHANNELS 3 Zrotation Xrotation Yrotation
															JOINT Model49
															{
																OFFSET -2.51966 0 0
																CHANNELS 3 Zrotation Xrotation Yrotation
																End Site
																{
																	OFFSET 0 0 0
																}
															}
														}
													}
													JOINT Model50
													{
														OFFSET -9.34246 -3.34118 0.239288
														CHANNELS 3 Zrotation Xrotation Yrotation
														JOINT Model51
														{
															OFFSET -3.2826 -2.28882e-005 0
															CHANNELS 3 Zrotation Xrotation Yrotation
															JOINT Model52
															{
																OFFSET -2.1292 0 0
																CHANNELS 3 Zrotation Xrotation Yrotation
																End Site
																{
																	OFFSET 0 0 0
																}
															}
														}
													}
												}
											}
										}
									}
								}
							}
						}
					}
				}
			}
		}
	}
	JOINT Model53
	{
		OFFSET 4.38026 -2.14632 -1.11517
		CHANNELS 3 Zrotation Xrotation Yrotation
		JOINT Model54
		{
			OFFSET 0 0 4.94998
			CHANNELS 3 Zrotation Xrotation Yrotation
			JOINT Model55
			{
				OFFSET 18.5642 0 0
				CHANNELS 3 Zrotation Xrotation Yrotation
				JOINT Model56
				{
					OFFSET 21.2884 0 0
					CHANNELS 3 Zrotation Xrotation Yrotation
					JOINT Model57
					{
						OFFSET 30.261 0 0
						CHANNELS 3 Zrotation Xrotation Yrotation
						JOINT Model58
						{
							OFFSET 11.7259 0 0
							CHANNELS 3 Zrotation Xrotation Yrotation
							JOINT Model59
							{
								OFFSET 10.682 0 0
								CHANNELS 3 Zrotation Xrotation Yrotation
								End Site
								{
									OFFSET 0 0 0
								}
							}
						}
					}
				}
			}
		}
	}
	JOINT Model60
	{
		OFFSET -4.38026 -2.14632 -1.11517
		CHANNELS 3 Zrotation Xrotation Yrotation
		JOINT Model61
		{
			OFFSET 0 0 -4.94998
			CHANNELS 3 Zrotation Xrotation Yrotation
			JOINT Model62
			{
				OFFSET -18.5642 0 0
				CHANNELS 3 Zrotation Xrotation Yrotation
				JOINT Model63
				{
					OFFSET -21.2884 0 0
					CHANNELS 3 Zrotation Xrotation Yrotation
					JOINT Model64
					{
						OFFSET -30.261 0 0
						CHANNELS 3 Zrotation Xrotation Yrotation
						JOINT Model65
						{
							OFFSET -11.7259 0 0
							CHANNELS 3 Zrotation Xrotation Yrotation
							JOINT Model66
							{
								OFFSET -10.682 0 0
								CHANNELS 3 Zrotation Xrotation Yrotation
								End Site
								{
									OFFSET 0 0 0
								}
							}
						}
					}
				}
			}
		}
	}
}
MOTION
Frames: 4
Frame Time: 0.033333
72.6822 172.029 -34.285 107.687 0.88074 89.7358 -180 4.29621e-031 -90 2.70461 -1.61791 0.465638 5.4255 -3.21242 1.00776 5.4255 -3.21198 1.00772 41.2436 5.952 -1.29337 -59.9336 7.83456 -1.94838 120.092 75.5343 58.4939 33.0207 -13.874 -5.31343 -167.277 84.4999 48.8109 107.047 -21.5363 -57.9243 1.57861e-005 -43.3058 2.0971e-005 -54.021 -24.9522 0.545183 -5.22164e-006 -38.0992 -6.19786e-006 30.6465 4.92045 17.8235 -72.0648 39.0385 39.3397 33.3638 2.10362 14.835 0.588947 0.308273 6.35287 -99.6409 81.413 100.35 -0.018141 2.771e-005 -0.117315 -0.124139 0.00241102 -0.799296 -79.8382 79.5773 80.5374 -0.000225813 -0.000220995 2.22145e-005 -0.000956276 0.000122796 -2.72934e-005 -66.7416 80.4058 67.2171 -0.000437167 1.58757e-005 -2.72999e-005 -0.00013665 -0.000109386 -5.46132e-005 -6.42159 81.2158 8.01779 -0.000218596 1.6845e-005 0.000212159 0.000901544 -0.000184888 -0.00021854 -59.9282 75.5373 58.5147 -11.0524 -5.0959 0.132493 -167.277 84.4999 48.8109 -158.206 -23.5223 -4.58426 9.81327e-006 -5.06499 2.82161e-005 -48.2576 9.72045 0.460586 -5.54274e-006 13.9304 2.37833e-006 20.6268 2.43455 13.3203 -72.0648 39.0385 39.3397 33.3638 2.10361 14.835 0.588946 0.308273 6.35287 -99.6409 81.413 100.35 -0.0181409 3.004e-005 -0.117315 -0.124139 0.00241108 -0.799296 -79.8382 79.5773 80.5374 -0.000260662 -0.000218603 2.35334e-005 -0.000956248 0.000122947 -2.73707e-005 -66.7416 80.4058 67.2171 -0.00043715 1.48433e-005 -2.73564e-005 -0.000136628 -0.000109334 -5.46897e-005 -6.42159 81.2158 8.01779 -0.000218592 1.95333e-005 0.000212268 0.000901549 -0.000191307 -0.000218604 0.000811311 0.56661 89.91 -40.3012 -29.6704 -34.7732 -1.54347e-005 -35.8224 -5.07551e-006 110.26 16.7892 -0.00812297 6.06392e-007 25.07 6.57082e-007 -64.5491 -15.8752 8.38691 -35.4947 3.17119e-007 4.01489e-007 -180 -0.566579 -90.09 3.66574 -2.11206 4.92633 -2.76945e-006 -7.72442 -2.2269e-007 34.8454 -0.0453788 -0.60089 3.76272e-007 -0.133832 -8.70161e-009 -66.6811 11.8843 -7.50611 -38.813 -3.3082 -0.167166 
72.7782 172.072 -34.252 107.857 1.01155 89.7757 -180 4.29621e-031 -90 2.71962 -1.67158 0.461458 5.45608 -3.31974 1.00241 5.45607 -3.31931 1.00237 41.2334 6.02334 -1.2317 -59.805 7.90335 -1.95296 120.092 75.5343 58.4939 32.7481 -14.4226 -5.31719 -167.277 84.4999 48.8109 106.449 -21.12 -57.8385 1.57787e-005 -43.2911 2.0966e-005 -53.8963 -25.0481 0.544757 -5.24141e-006 -38.2427 -6.21007e-006 30.7157 4.92957 17.8144 -72.0648 39.0385 39.3397 33.3638 2.10362 14.835 0.588947 0.308273 6.35287 -99.6409 81.413 100.35 -0.018141 2.771e-005 -0.117315 -0.124139 0.00241102 -0.799296 -79.8382 79.5773 80.5374 -0.000225813 -0.000220995 2.22145e-005 -0.000956276 0.000122796 -2.72934e-005 -66.7416 80.4058 67.2171 -0.000437167 1.58757e-005 -2.72999e-005 -0.00013665 -0.000109386 -5.46132e-005 -6.42159 81.2158 8.01779 -0.000218596 1.6845e-005 0.000212159 0.000901544 -0.000184888 -0.00021854 -59.9282 75.5373 58.5147 -11.1953 -4.95405 0.212036 -167.277 84.4999 48.8109 -158.175 -23.5877 -4.6544 9.83281e-006 -5.1045 2.82179e-005 -48.2813 9.64908 0.460664 -5.53816e-006 13.8233 2.37723e-006 20.6517 2.42904 13.2742 -72.0648 39.0385 39.3397 33.3638 2.10361 14.835 0.588946 0.308273 6.35287 -99.6409 81.413 100.35 -0.0181409 3.004e-005 -0.117315 -0.124139 0.00241108 -0.799296 -79.8382 79.5773 80.5374 -0.000260662 -0.000218603 2.35334e-005 -0.000956248 0.000122947 -2.73707e-005 -66.7416 80.4058 67.2171 -0.00043715 1.48433e-005 -2.73564e-005 -0.000136628 -0.000109334 -5.46897e-005 -6.42159 81.2158 8.01779 -0.000218592 1.95333e-005 0.000212268 0.000901549 -0.000191307 -0.000218604 0.000811311 0.56661 89.91 -40.1143 -29.6215 -34.7412 -1.54182e-005 -35.6709 -5.06586e-006 110.325 16.8099 -0.00814264 6.05997e-007 25.1012 6.5725e-007 -64.4068 -15.1102 7.9721 -35.4947 3.20463e-007 3.95268e-007 -180 -0.566579 -90.09 4.10408 -2.23987 4.94574 -2.77043e-006 -7.97363 -2.22823e-007 34.4873 0.0490885 -0.624987 3.76294e-007 0.00857017 -8.70158e-009 -66.5675 11.8458 -7.49589 -38.8675 -3.22528 -0.175841 
72.9037 172.098 -34.218 108.075 1.03254 89.813 -180 4.29621e-031 -90 2.74182 -1.72952 0.460319 5.50118 -3.43539 1.0036 5.50117 -3.43496 1.00356 41.338 6.09387 -1.34893 -59.852 7.95261 -1.88493 120.092 75.5343 58.4939 32.5632 -15.2433 -5.33216 -167.277 84.4999 48.8109 105.837 -20.781 -57.5006 1.57569e-005 -43.2476 2.0951e-005 -53.8419 -24.9267 0.54383 -5.21634e-006 -38.0606 -6.19458e-006 30.6673 4.95563 17.9365 -72.0648 39.0385 39.3397 33.3638 2.10362 14.835 0.588947 0.308273 6.35287 -99.6409 81.413 100.35 -0.018141 2.771e-005 -0.117315 -0.124139 0.00241102 -0.799296 -79.8382 79.5773 80.5374 -0.000225813 -0.000220995 2.22145e-005 -0.000956276 0.000122796 -2.72934e-005 -66.7416 80.4058 67.2171 -0.000437167 1.58757e-005 -2.72999e-005 -0.00013665 -0.000109386 -5.46132e-005 -6.42159 81.2158 8.01779 -0.000218596 1.6845e-005 0.000212159 0.000901544 -0.000184888 -0.00021854 -59.9282 75.5373 58.5147 -11.1627 -4.4603 0.417186 -167.277 84.4999 48.8109 -157.791 -23.6097 -4.554 9.84662e-006 -5.13244 2.82191e-005 -48.2958 9.5258 0.460513 -5.53026e-006 13.6383 2.37536e-006 20.6901 2.41547 13.176 -72.0648 39.0385 39.3397 33.3638 2.10361 14.835 0.588946 0.308273 6.35287 -99.6409 81.413 100.35 -0.0181409 3.004e-005 -0.117315 -0.124139 0.00241108 -0.799296 -79.8382 79.5773 80.5374 -0.000260662 -0.000218603 2.35334e-005 -0.000956248 0.000122947 -2.73707e-005 -66.7416 80.4058 67.2171 -0.00043715 1.48433e-005 -2.73564e-005 -0.000136628 -0.000109334 -5.46897e-005 -6.42159 81.2158 8.01779 -0.000218592 1.95333e-005 0.000212268 0.000901549 -0.000191307 -0.000218604 0.000811311 0.56661 89.91 -39.8588 -29.6332 -34.8154 -1.54056e-005 -35.5552 -5.05854e-006 110.407 16.8921 -0.00816552 6.04432e-007 25.2246 6.57915e-007 -64.2168 -14.3103 7.54573 -35.4947 3.25045e-007 3.86793e-007 -180 -0.566579 -90.09 4.57551 -2.37672 4.93078 -2.77135e-006 -8.20683 -2.22952e-007 34.2177 0.147962 -0.640752 3.76317e-007 0.157414 -8.70162e-009 -66.5255 11.8619 -7.50949 -38.8977 -3.18599 -0.180971 
73.0164 172.09 -34.193 108.25 0.924863 89.8167 -180 4.29621e-031 -90 2.76285 -1.74665 0.464792 5.5436 -3.46923 1.01401 5.5436 -3.46879 1.01397 41.57 6.02104 -1.664 -60.1187 7.78841 -1.67573 120.092 75.5343 58.4939 32.4674 -15.4426 -5.33537 -167.277 84.4999 48.8109 105.682 -20.6727 -57.4181 1.57404e-005 -43.2148 2.09397e-005 -53.8597 -24.7498 0.543216 -5.18004e-006 -37.7953 -6.17227e-006 30.5946 4.96016 17.9963 -72.0648 39.0385 39.3397 33.3638 2.10362 14.835 0.588947 0.308273 6.35287 -99.6409 81.413 100.35 -0.018141 2.771e-005 -0.117315 -0.124139 0.00241102 -0.799296 -79.8382 79.5773 80.5374 -0.000225813 -0.000220995 2.22145e-005 -0.000956276 0.000122796 -2.72934e-005 -66.7416 80.4058 67.2171 -0.000437167 1.58757e-005 -2.72999e-005 -0.00013665 -0.000109386 -5.46132e-005 -6.42159 81.2158 8.01779 -0.000218596 1.6845e-005 0.000212159 0.000901544 -0.000184888 -0.00021854 -59.9282 75.5373 58.5147 -10.9147 -3.76503 0.675622 -167.277 84.4999 48.8109 -157.039 -23.5656 -4.2597 9.84702e-006 -5.13325 2.82191e-005 -48.2488 9.35854 0.45997 -5.51957e-006 13.3876 2.37286e-006 20.6837 2.37743 12.9741 -72.0648 39.0385 39.3397 33.3638 2.10361 14.835 0.588946 0.308273 6.35287 -99.6409 81.413 100.35 -0.0181409 3.004e-005 -0.117315 -0.124139 0.00241108 -0.799296 -79.8382 79.5773 80.5374 -0.000260662 -0.000218603 2.35334e-005 -0.000956248 0.000122947 -2.73707e-005 -66.7416 80.4058 67.2171 -0.00043715 1.48433e-005 -2.73564e-005 -0.000136628 -0.000109334 -5.46897e-005 -6.42159 81.2158 8.01779 -0.000218592 1.95333e-005 0.000212268 0.000901549 -0.000191307 -0.000218604 0.000811311 0.56661 89.91 -39.6264 -29.6716 -34.9141 -1.5398e-005 -35.4848 -5.05411e-006 110.474 17.0096 -0.00819047 6.02192e-007 25.4008 6.58872e-007 -64.2814 -14.1954 7.46588 -35.4947 3.30758e-007 3.76258e-007 -180 -0.566579 -90.09 4.84569 -2.4537 4.90136 -2.77179e-006 -8.31837 -2.23015e-007 34.2424 0.171907 -0.655969 3.76322e-007 0.193286 -8.70163e-009 -66.7125 12.2729 -7.72188 -38.6332 -3.59842 -0.137531 
